<?xml version="1.0" standalone="no"?>
<!DOCTYPE svg PUBLIC "-//W3C//DTD SVG 20010904//EN"
 "http://www.w3.org/TR/2001/REC-SVG-20010904/DTD/svg10.dtd">
<svg version="1.0" xmlns="http://www.w3.org/2000/svg"
 width="414.000000pt" height="161.000000pt" viewBox="0 0 414.000000 161.000000"
 preserveAspectRatio="xMidYMid meet">
<metadata>
Created by potrace 1.16, written by Peter Selinger 2001-2019
</metadata>
<g transform="translate(0.000000,161.000000) scale(0.100000,-0.100000)"
fill="#000000" stroke="none">
<path d="M0 805 l0 -805 2070 0 2070 0 0 805 0 805 -2070 0 -2070 0 0 -805z
m1696 319 c32 -15 64 -57 64 -84 0 -5 -21 -10 -48 -10 -36 0 -50 5 -60 20 -15
25 -48 26 -61 2 -15 -28 4 -48 69 -72 83 -31 114 -69 107 -129 -8 -74 -70
-110 -164 -96 -51 7 -99 46 -109 88 -6 27 -6 27 45 27 39 0 51 -4 51 -15 0
-23 46 -41 65 -25 18 15 20 44 3 57 -7 5 -39 20 -71 33 -32 12 -66 34 -77 48
-24 30 -26 89 -4 121 34 48 126 65 190 35z m1576 -31 c3 -33 7 -38 31 -41 24
-3 27 -8 27 -38 0 -31 -2 -34 -30 -34 l-30 0 0 -63 c0 -65 11 -87 42 -87 14 0
18 -8 18 -35 0 -35 0 -35 -44 -35 -33 0 -52 6 -73 24 -26 23 -28 31 -32 110
-3 77 -5 86 -22 86 -15 0 -19 7 -19 35 0 28 4 35 20 35 17 0 20 7 20 40 l0 40
44 0 c44 0 45 0 48 -37z m-1212 -60 c61 -36 84 -140 46 -211 -19 -37 -82 -72
-131 -72 -42 0 -110 34 -130 63 -35 54 -32 141 8 190 44 54 142 69 207 30z
m388 0 c52 -33 70 -158 32 -221 -38 -62 -128 -78 -178 -31 l-22 20 0 -96 0
-95 -45 0 -45 0 0 220 0 220 45 0 c40 0 45 -3 45 -22 l0 -21 23 20 c12 11 29
23 37 26 22 9 81 -2 108 -20z m342 0 c65 -38 85 -144 42 -215 -59 -95 -226
-84 -268 18 -26 61 -11 149 29 183 50 41 141 48 197 14z m320 -23 c0 -49 -1
-50 -30 -50 -53 0 -70 -29 -70 -120 l0 -80 -45 0 -45 0 0 145 0 145 45 0 c41
0 45 -2 45 -25 l0 -24 26 24 c14 13 35 26 47 28 12 2 23 5 25 6 1 0 2 -21 2
-49z m507 24 c33 -21 54 -57 60 -104 l6 -40 -107 0 c-110 0 -122 -5 -93 -42
21 -27 52 -30 80 -8 32 26 107 28 107 4 0 -24 -65 -81 -100 -89 -74 -16 -150
19 -176 81 -26 61 -10 150 32 185 46 38 142 44 191 13z"/>
<path d="M2306 959 c-50 -39 -22 -129 41 -129 33 0 63 34 63 73 0 38 -7 50
-37 66 -30 15 -36 14 -67 -10z"/>
</g>
</svg>
